<svg xmlns="http://www.w3.org/2000/svg" viewBox="0 0 1200 680" role="img" aria-labelledby="title desc"><title id="title">Tansy Tallytail character-specific production sheet</title><desc id="desc">Provisional original front and side turnaround, working pose, signature prop, clothing cues, and six expression variants.</desc><rect width="1200" height="680" fill="#171512"/><g id="labels" font-family="Arial,sans-serif" fill="#F4E7C5"><text x="35" y="45" font-size="28">Tansy Tallytail — PROVISIONAL</text><text x="130" y="650">FRONT</text><text x="390" y="650">SIDE</text><text x="610" y="650">WORKING</text><text x="900" y="650">EXPRESSIONS</text></g><g id="turnaround-front"><path id="front-torso" d="M75 205H270V430H75Z" fill="#4F7A57"/><circle id="front-head" cx="170" cy="145" r="72" fill="#F4E7C5"/><path id="front-mask" d="M105 135Q170 90 235 135L218 172Q170 145 122 172Z" fill="#2B2721"/></g><g id="turnaround-side"><path id="side-torso" d="M350 210H475V430H350Z" fill="#4F7A57"/><circle id="side-head" cx="405" cy="150" r="68" fill="#F4E7C5"/><path id="side-mask" d="M350 140Q405 105 462 142L446 174Q405 151 365 173Z" fill="#2B2721"/></g><g id="working-pose"><ellipse id="working-torso" cx="650" cy="385" rx="92" ry="155" fill="#4F7A57"/><circle id="working-head" cx="630" cy="175" r="72" fill="#F4E7C5"/><path id="working-mask" d="M565 165Q630 120 695 165L678 202Q630 175 582 202Z" fill="#2B2721"/><path id="working-arm-left" d="M600 320L520 410" stroke="#F4E7C5" stroke-width="24" stroke-linecap="round"/><path id="working-arm-right" d="M700 320L775 405" stroke="#F4E7C5" stroke-width="24" stroke-linecap="round"/><g id="prop-layer"><g id="three-pouches" fill="#D9A441"><rect x="90" y="300" width="45" height="55"/><rect x="150" y="300" width="45" height="55"/><rect x="210" y="300" width="45" height="55"/></g><g id="square-glasses" fill="none" stroke="#211D18" stroke-width="7"><rect x="105" y="120" width="48" height="36"/><rect x="181" y="120" width="48" height="36"/></g><rect id="abacus-crate" x="240" y="340" width="125" height="75" fill="#2B2721" stroke="#D9A441" stroke-width="7"/></g></g><g id="reaction-pose" transform="translate(0 0)"><circle cx="875" cy="150" r="58" fill="#F4E7C5"/><path d="M823 140Q875 105 927 140L914 170Q875 150 836 170Z" fill="#2B2721"/></g><g id="expression-eyes" fill="#171512"><g id="expression-neutral"><circle cx="855" cy="148" r="8"/><circle cx="895" cy="148" r="8"/></g><g id="expression-confident" transform="translate(120 0)"><path d="M840 145l25-7M885 138l25 7" stroke="#171512" stroke-width="7"/><circle cx="855" cy="153" r="7"/><circle cx="895" cy="153" r="7"/></g><g id="expression-alarmed" transform="translate(0 150)"><circle cx="855" cy="148" r="13"/><circle cx="895" cy="148" r="13"/></g><g id="expression-delighted" transform="translate(120 150)"><path d="M842 150q13-18 26 0M882 150q13-18 26 0" fill="none" stroke="#171512" stroke-width="7"/></g><g id="expression-exhausted" transform="translate(0 300)"><path d="M842 150h26M882 150h26" stroke="#171512" stroke-width="7"/></g><g id="expression-suspicious" transform="translate(120 300)"><path d="M840 140l28 10M882 150l28-10" stroke="#171512" stroke-width="7"/></g></g><g id="expression-mouth" fill="none" stroke="#171512" stroke-width="7"><path d="M855 182h40"/><path d="M975 180q20 18 40 0"/><ellipse cx="875" cy="345" rx="18" ry="25"/><path d="M975 330q20 30 40 0"/><path d="M855 485q20-15 40 0"/><path d="M975 480l40-8"/></g></svg>
