<svg xmlns="http://www.w3.org/2000/svg" viewBox="0 0 1080 1920"><title>Provisional Muddle cutout rig study</title><g id="root"><path id="torso" d="M420 800q350 300 100 760H300q250-350 0-650z" fill="#D9A441"/><circle id="head" cx="540" cy="580" r="260" fill="#F4E7C5"/><path id="muzzle" d="M350 630h380q-60 220-190 220T350 630" fill="#2B2721"/><g id="eyes" fill="#F4E7C5"><circle cx="450" cy="630" r="26"/><circle cx="630" cy="630" r="26"/></g><path id="brows" d="M390 550l110 15m80 0 110-15" stroke="#171512" stroke-width="24"/><path id="upper-arm-l" d="M360 920l-190 200" stroke="#D9A441" stroke-width="85"/><path id="lower-arm-l" d="M170 1120l100 220" stroke="#D9A441" stroke-width="75"/><circle id="hand-l" cx="270" cy="1340" r="52"/><path id="upper-arm-r" d="M650 950l250 170" stroke="#D9A441" stroke-width="85"/><path id="lower-arm-r" d="M900 1120l-100 220" stroke="#D9A441" stroke-width="75"/><circle id="hand-r" cx="800" cy="1340" r="52"/><circle id="prop-anchor" cx="800" cy="1340" r="12"/></g></svg>
